<svg id="Layer_1" data-name="Layer 1" xmlns="http://www.w3.org/2000/svg" viewBox="0 0 467.01 409.56"><title>lehma</title><path d="M171.5,185.56a19,19,0,1,1-19,19A19,19,0,0,1,171.5,185.56Zm124,38a19,19,0,1,0-19-19A19,19,0,0,0,295.5,223.56Zm-105,125h20v-31h-20Zm66,0h20v-31h-20ZM467,153h0c-.47,11.71-9,22.83-23.95,31.31a100.65,100.65,0,0,1-44.7,12.29q-1.61.05-3.19.06c-13.93,0-26.51-3.19-36.15-9v98c0,68.2-55.8,124-124,124h-3c-68.2,0-124-55.8-124-124v-98c-9.64,5.85-22.22,9-36.15,9-1.06,0-2.12,0-3.19-.06A100.65,100.65,0,0,1,24,184.27C9,175.79.48,164.68,0,153c-.26-6.66,2.74-13.3,8.93-19.75C21.7,120,46.32,109.56,65,109.56A121.62,121.62,0,0,1,83.93,111,120.53,120.53,0,0,1,63,85.3c-16.8-27.36-16.6-63-12.8-75.21.54-1.71,2.17-6.93,7.3-9.18C64-1.93,68.77,2.61,71.35,5c1.76,1.66,4,3.92,6.81,6.78,10,10.13,26.74,27.08,42.41,37.23,20.5,13.28,40.23,13.5,40.43,13.5v.5a123.12,123.12,0,0,1,71-22.5h3A123.12,123.12,0,0,1,306.05,63.1v-.53c.15,0,19.88-.22,40.38-13.5,15.67-10.15,32.41-27.1,42.41-37.23C391.68,9,393.91,6.71,395.66,5c2.58-2.44,7.38-7,13.85-4.14,5.13,2.25,6.77,7.47,7.3,9.18,3.81,12.17,4,47.85-12.8,75.21A120.53,120.53,0,0,1,383.08,111a121.62,121.62,0,0,1,18.92-1.4c18.69,0,43.31,10.39,56.06,23.65C464.25,139.66,467.26,146.3,467,153ZM325.27,79.77a124.93,124.93,0,0,1,21.63,31.52c8.1-3.4,25.7-13,40.08-36.46,9-14.69,11.71-32.45,12-44.76-10.71,10.77-26.24,25.81-41.62,35.78A106.87,106.87,0,0,1,325.27,79.77ZM232,60.56a104.36,104.36,0,0,0-104,104v113H339v-113a104.36,104.36,0,0,0-104-104ZM120.11,111.29a124.93,124.93,0,0,1,21.63-31.52,106.8,106.8,0,0,1-32.05-13.92c-15.38-10-30.91-25-41.62-35.78C68.32,42.38,71,60.14,80,74.83,94.42,98.26,112,107.89,120.11,111.29Zm-17.79,55.56c4.08-4.09,5.94-9.29,5.7-15.91-.71-19.29-30.31-21.37-43-21.37-9,0-20.77,3.6-30.81,9.39C23.51,145.12,20.06,150.8,20,152.18c.38,9,22.62,23.47,49.35,24.39C83.44,177.06,95.76,173.42,102.32,166.85Zm236,130.72H128.7a104.45,104.45,0,0,0,103.3,92h3a104.45,104.45,0,0,0,103.3-92ZM447,152.18c-.06-1.38-3.51-7.05-14.2-13.22-10-5.79-21.85-9.39-30.81-9.39-12.69,0-42.29,2.08-43,21.37-.25,6.62,1.62,11.82,5.7,15.91,6.56,6.57,18.88,10.21,33,9.72C424.39,175.65,446.63,161.16,447,152.18Z" transform="translate(0 0)"/></svg>