<svg id="Layer_1" data-name="Layer 1" xmlns="http://www.w3.org/2000/svg" viewBox="0 0 143.07 34.95"><title>milkmate_logo</title><path d="M25.15,32.7a.41.41,0,0,1,.12.56,2.25,2.25,0,0,1-.61.76,4.42,4.42,0,0,1-1.05.67,2.64,2.64,0,0,1-1.22.26,2.45,2.45,0,0,1-1.15-.35,3,3,0,0,1-1-1,6.18,6.18,0,0,1-.7-1.72,9.83,9.83,0,0,1-.27-2.46V7.17A6.49,6.49,0,0,0,19,5.06,2.76,2.76,0,0,0,18.36,4a1.42,1.42,0,0,0-.75-.4A4.36,4.36,0,0,0,17,3.52a3.92,3.92,0,0,0-.66.07,1.39,1.39,0,0,0-.76.46A3.15,3.15,0,0,0,15,5.26a8.46,8.46,0,0,0-.26,2.38V33.56a.3.3,0,0,1,.23.23q0,.19-.27.39a3.51,3.51,0,0,1-.67.38,4.54,4.54,0,0,1-.9.28,4.64,4.64,0,0,1-.95.11,2.71,2.71,0,0,1-.83-.12q-.36-.12-.36-.8V7.17a7.07,7.07,0,0,0-.25-2.11A2.66,2.66,0,0,0,10.1,4a1.36,1.36,0,0,0-.74-.4,4.55,4.55,0,0,0-.67-.06,4.36,4.36,0,0,0-.62.06,1.48,1.48,0,0,0-.76.4,2.68,2.68,0,0,0-.64,1.09A6.49,6.49,0,0,0,6.4,7.17V28.43a9.13,9.13,0,0,1-1.05,4.85,3.41,3.41,0,0,1-3.07,1.66,2.33,2.33,0,0,1-1.11-.23,2,2,0,0,1-.69-.59,2.22,2.22,0,0,1-.36-.75A2.86,2.86,0,0,1,0,32.65a.21.21,0,0,1,.11-.21.74.74,0,0,1,.29,0H.82a1.69,1.69,0,0,0,.49-.11,1.33,1.33,0,0,0,.48-.37,2.49,2.49,0,0,0,.43-.82,7.41,7.41,0,0,0,.3-1.36,14.59,14.59,0,0,0,.12-2V7.64a10.51,10.51,0,0,1,.53-3.56A6.93,6.93,0,0,1,4.55,1.71,4.94,4.94,0,0,1,6.46.4,6.09,6.09,0,0,1,8.6,0a7.66,7.66,0,0,1,.82.06,5.5,5.5,0,0,1,1.14.27,6.29,6.29,0,0,1,1.25.6A5.07,5.07,0,0,1,13,2a4.09,4.09,0,0,1,1-1,5.07,5.07,0,0,1,1.07-.6,4,4,0,0,1,1-.27A7,7,0,0,1,16.9,0a6.41,6.41,0,0,1,2.21.4,5,5,0,0,1,1.95,1.31,7,7,0,0,1,1.39,2.37A10.3,10.3,0,0,1,23,7.64V29a4.77,4.77,0,0,0,.18,1.35,4.07,4.07,0,0,0,.47,1.05,3.14,3.14,0,0,0,.69.77A4.7,4.7,0,0,0,25.15,32.7Zm3-23a2.9,2.9,0,0,0,.91.63,2.71,2.71,0,0,0,1.11.23,2.91,2.91,0,0,0,1.17-.23,2.87,2.87,0,0,0,.93-.63,3,3,0,0,0,.61-.93,2.89,2.89,0,0,0,.22-1.14,3,3,0,0,0-.22-1.17,2.75,2.75,0,0,0-1.54-1.54,3,3,0,0,0-1.17-.22,2.88,2.88,0,0,0-2,.83,3,3,0,0,0-.62.93,2.91,2.91,0,0,0-.23,1.17,2.77,2.77,0,0,0,.23,1.14A3.16,3.16,0,0,0,28.16,9.66ZM65.87,26.72a1.47,1.47,0,0,1,0,.8A22.13,22.13,0,0,1,65,29.77a11.87,11.87,0,0,1-1.55,2.44,9,9,0,0,1-2.2,1.95,5.34,5.34,0,0,1-2.91.8,4.74,4.74,0,0,1-2.57-.73,7.4,7.4,0,0,1-2-1.83A8.52,8.52,0,0,1,52.48,30,7.8,7.8,0,0,1,52,27.47a1.19,1.19,0,0,1,.33-.76,9.22,9.22,0,0,1,.83-.84q.5-.46,1.08-1a9.57,9.57,0,0,0,1.08-1.27A6.76,6.76,0,0,0,56.18,22a5.63,5.63,0,0,0,.33-2,2.31,2.31,0,0,0-.43-1.45A1.35,1.35,0,0,0,55,18a2.28,2.28,0,0,0-1,.32,4.49,4.49,0,0,0-1.25,1.09,10.86,10.86,0,0,0-1.31,2.05,18.58,18.58,0,0,0-1.22,3.18v8.25q0,.35,0,.71a1.76,1.76,0,0,1-.14.66,1.21,1.21,0,0,1-.4.49,1.31,1.31,0,0,1-.79.2,3.9,3.9,0,0,1-.76-.08,2.11,2.11,0,0,1-.75-.3,1.71,1.71,0,0,1-.56-.63,2.29,2.29,0,0,1-.22-1.09V32.4a9,9,0,0,1-2,1.75,5.34,5.34,0,0,1-2.91.8,6.08,6.08,0,0,1-2.44-.46,4.82,4.82,0,0,1-1.77-1.29A5.33,5.33,0,0,1,36.63,32c-.1.14-.18.29-.28.43a7.31,7.31,0,0,1-2,1.83,4.93,4.93,0,0,1-2.7.73A3.88,3.88,0,0,1,30,34.58a3.81,3.81,0,0,1-1.27-1,4.23,4.23,0,0,1-.79-1.43,5.52,5.52,0,0,1-.27-1.73V17.63a3.29,3.29,0,0,0-.11-1,1.73,1.73,0,0,1-.11-.56.66.66,0,0,1,.38-.57,1.71,1.71,0,0,1,.89-.22,2.72,2.72,0,0,1,1.89.62,1.93,1.93,0,0,1,.69,1.49V29.58q0,.16,0,.53a3.15,3.15,0,0,0,.14.74,1.72,1.72,0,0,0,.38.66.94.94,0,0,0,.73.28,1.71,1.71,0,0,0,1.23-.52A4.76,4.76,0,0,0,34.7,30a9.69,9.69,0,0,0,.64-1.68q.26-.9.42-1.7A3.23,3.23,0,0,1,36,26V6.77a8.6,8.6,0,0,1,.34-2.47,6.26,6.26,0,0,1,.94-1.95,4.55,4.55,0,0,1,1.39-1.27A3.34,3.34,0,0,1,40.31.63,3.75,3.75,0,0,1,42.09,1a3.52,3.52,0,0,1,1.2,1A5.09,5.09,0,0,1,44,3.49a9.48,9.48,0,0,1,.39,1.68,15.68,15.68,0,0,1,.14,1.69q0,.83,0,1.51a22.08,22.08,0,0,1-.33,3.69q-.33,1.93-.83,3.81t-1.1,3.6q-.6,1.72-1.15,3.06t-1,2.18a4.44,4.44,0,0,1-.6,1v2.79a4.25,4.25,0,0,0,.61,2.38,2.16,2.16,0,0,0,1.95.93,2.61,2.61,0,0,0,1.54-.5A5.41,5.41,0,0,0,44.94,30a8.19,8.19,0,0,0,.93-1.66,9.39,9.39,0,0,0,.54-1.7,3.14,3.14,0,0,1,.12-.4V4a3.28,3.28,0,0,0-.08-.82,3.05,3.05,0,0,0-.16-.48,1.49,1.49,0,0,0-.16-.28A.36.36,0,0,1,46,2.23.28.28,0,0,1,46.17,2a1.41,1.41,0,0,1,.38-.16,3.19,3.19,0,0,1,.5-.11,4.08,4.08,0,0,1,.53,0,2.72,2.72,0,0,1,1.89.62,1.93,1.93,0,0,1,.69,1.49v15q.59-.8,1.23-1.51A10.72,10.72,0,0,1,52.73,16a6.63,6.63,0,0,1,1.46-.88A3.92,3.92,0,0,1,59,16.38,5,5,0,0,1,59.8,18a7.74,7.74,0,0,1-.2,4.52,9.82,9.82,0,0,1-1.12,2.19A11.33,11.33,0,0,1,57,26.51a13.86,13.86,0,0,1-1.54,1.29,8.65,8.65,0,0,0,.46,1.49,5.75,5.75,0,0,0,.71,1.28,3.38,3.38,0,0,0,1,.89,2.4,2.4,0,0,0,1.25.33,2.61,2.61,0,0,0,1.54-.5A5.41,5.41,0,0,0,61.65,30a8.19,8.19,0,0,0,.93-1.66,9.39,9.39,0,0,0,.54-1.7,2.22,2.22,0,0,1,.43-1.05,1,1,0,0,1,.63-.36,1.11,1.11,0,0,1,.69.18,2.15,2.15,0,0,1,.61.55A2.42,2.42,0,0,1,65.87,26.72ZM39.59,19.41a7.54,7.54,0,0,0,.5-1.32q.25-.83.47-1.84T41,14.13q.19-1.1.33-2.16t.22-2q.08-.93.08-1.58a12.65,12.65,0,0,0-.35-3.5Q40.9,3.8,40.31,3.8A.41.41,0,0,0,40,4a1.62,1.62,0,0,0-.23.48,3.13,3.13,0,0,0-.13.63,6.08,6.08,0,0,0,0,.62ZM96.87,32.17a3.14,3.14,0,0,1-.69-.77,4.07,4.07,0,0,1-.47-1.05A4.77,4.77,0,0,1,95.53,29V7.64A10.3,10.3,0,0,0,95,4.08,7,7,0,0,0,93.6,1.71,5,5,0,0,0,91.65.4,6.41,6.41,0,0,0,89.44,0a7,7,0,0,0-.83.06,4,4,0,0,0-1,.27,5.07,5.07,0,0,0-1.07.6,4.09,4.09,0,0,0-1,1,5.07,5.07,0,0,0-1.2-1A6.29,6.29,0,0,0,83.1.33,5.5,5.5,0,0,0,82,.06,7.66,7.66,0,0,0,81.14,0,6.09,6.09,0,0,0,79,.4a4.94,4.94,0,0,0-1.91,1.31,6.93,6.93,0,0,0-1.37,2.37,10.51,10.51,0,0,0-.53,3.56V27.7a14.59,14.59,0,0,1-.12,2,7.41,7.41,0,0,1-.3,1.36,2.49,2.49,0,0,1-.43.82,1.33,1.33,0,0,1-.48.38,1.69,1.69,0,0,1-.49.11h-.42a.74.74,0,0,0-.29,0,.21.21,0,0,0-.11.21,2.86,2.86,0,0,0,.11.73,2.22,2.22,0,0,0,.36.75,2,2,0,0,0,.69.59,2.33,2.33,0,0,0,1.11.23,3.41,3.41,0,0,0,3.07-1.66,9.13,9.13,0,0,0,1.05-4.85V7.17a6.49,6.49,0,0,1,.27-2.11A2.68,2.68,0,0,1,79.85,4a1.48,1.48,0,0,1,.76-.4,4.36,4.36,0,0,1,.62-.06,4.55,4.55,0,0,1,.67.06,1.36,1.36,0,0,1,.74.4,2.66,2.66,0,0,1,.6,1.09,7.07,7.07,0,0,1,.25,2.11V34q0,.68.36.8a2.71,2.71,0,0,0,.83.12,4.64,4.64,0,0,0,.95-.11,4.54,4.54,0,0,0,.9-.28,3.51,3.51,0,0,0,.67-.37q.27-.2.27-.39a.3.3,0,0,0-.23-.23V7.64a8.46,8.46,0,0,1,.26-2.38A3.15,3.15,0,0,1,88.11,4a1.39,1.39,0,0,1,.76-.46,3.92,3.92,0,0,1,.66-.07,4.36,4.36,0,0,1,.62.06,1.42,1.42,0,0,1,.75.4,2.76,2.76,0,0,1,.63,1.09,6.49,6.49,0,0,1,.27,2.11V29.39a9.83,9.83,0,0,0,.27,2.46,6.18,6.18,0,0,0,.7,1.72,3,3,0,0,0,1,1,2.45,2.45,0,0,0,1.15.35,2.64,2.64,0,0,0,1.22-.26A4.42,4.42,0,0,0,97.2,34a2.25,2.25,0,0,0,.61-.76.41.41,0,0,0-.12-.56A4.7,4.7,0,0,1,96.87,32.17Zm46.2-5.94a16.38,16.38,0,0,1-.32,1.66,10,10,0,0,1-.67,1.9,10.62,10.62,0,0,1-1.14,1.89,7.77,7.77,0,0,1-1.7,1.65,8.59,8.59,0,0,1-2.37,1.17,10,10,0,0,1-3.12.45,8.13,8.13,0,0,1-3.18-.64,8.1,8.1,0,0,1-3.62-3,10.3,10.3,0,0,1-.69,1.06,7.47,7.47,0,0,1-2,1.83,4.93,4.93,0,0,1-2.7.73,5.16,5.16,0,0,1-1.77-.29,3.45,3.45,0,0,1-1.39-.94,4.36,4.36,0,0,1-.8-1.39l0,.07a7.24,7.24,0,0,1-2,1.83,5,5,0,0,1-2.71.73,4.34,4.34,0,0,1-2.2-.54A4.05,4.05,0,0,1,109.22,33a6.7,6.7,0,0,1-1.75,1.39,4.77,4.77,0,0,1-2.38.57,5.22,5.22,0,0,1-2.47-.56,5.3,5.3,0,0,1-1.79-1.54,6.8,6.8,0,0,1-1.09-2.3,10.73,10.73,0,0,1-.36-2.85,14.35,14.35,0,0,1,1-5.39,12.69,12.69,0,0,1,2.55-4.07,11.09,11.09,0,0,1,3.64-2.57,10.57,10.57,0,0,1,4.25-.89,2.32,2.32,0,0,1,1.59.54A1.87,1.87,0,0,1,113,16.8a2,2,0,0,1-.13.86.49.49,0,0,1-.48.25,5.14,5.14,0,0,1-.68,0,5.49,5.49,0,0,0-.73,0,7,7,0,0,0-2.77.6,7.39,7.39,0,0,0-2.54,1.83,9.64,9.64,0,0,0-1.86,3.12,12.48,12.48,0,0,0-.73,4.49,5,5,0,0,0,.73,2.92,2.32,2.32,0,0,0,2,1,2.1,2.1,0,0,0,1.64-.74,5.82,5.82,0,0,0,1.05-1.75V21.89a4.06,4.06,0,0,0,0-.59q0-.23-.07-.4l-.06-.29a1.38,1.38,0,0,1,0-.25.68.68,0,0,1,.36-.6,1.65,1.65,0,0,1,.88-.22,2.76,2.76,0,0,1,1.9.62,1.92,1.92,0,0,1,.7,1.49v7.92a3.32,3.32,0,0,0,.09.79,2.55,2.55,0,0,0,.28.7,1.51,1.51,0,0,0,.5.52,1.36,1.36,0,0,0,.74.2,1.73,1.73,0,0,0,1.25-.52,4.76,4.76,0,0,0,.91-1.29,9.08,9.08,0,0,0,.63-1.68q.25-.9.41-1.7a3.35,3.35,0,0,1,.21-.66V14.37h-1.42l-1,0-.87,0a1.29,1.29,0,0,1-1-.5,2.94,2.94,0,0,1-.61-1.11,2.1,2.1,0,0,1,0-1.11.61.61,0,0,1,.64-.5q.54,0,1.2.07t1.36.06l1.78,0V3.07a3.28,3.28,0,0,0-.08-.82,3.05,3.05,0,0,0-.16-.48,1.49,1.49,0,0,0-.16-.28.36.36,0,0,1-.08-.22.28.28,0,0,1,.14-.23,1.41,1.41,0,0,1,.38-.16,3.19,3.19,0,0,1,.5-.11,4.08,4.08,0,0,1,.53,0,2.72,2.72,0,0,1,1.89.62,1.93,1.93,0,0,1,.69,1.49v8.41q2.2,0,4.65,0t4.91-.16q.33-.35.53-.26a.55.55,0,0,1,.26.45,3.48,3.48,0,0,1,0,.87,5.22,5.22,0,0,1-.19,1,2.82,2.82,0,0,1-.39.83.69.69,0,0,1-.55.35q-2.88.07-5.1.08h-4.14V29.58a2.57,2.57,0,0,0,.45,1.69,1.5,1.5,0,0,0,1.2.52,1.73,1.73,0,0,0,1.25-.52,4.76,4.76,0,0,0,.91-1.29,9.08,9.08,0,0,0,.63-1.68c.07-.25.11-.47.17-.7a12.14,12.14,0,0,1-.18-2.14,13.68,13.68,0,0,1,.63-4.23,12.12,12.12,0,0,1,1.66-3.39,8.23,8.23,0,0,1,2.34-2.24,5.08,5.08,0,0,1,2.7-.81,4.51,4.51,0,0,1,1.82.35,3.81,3.81,0,0,1,1.37,1,4.39,4.39,0,0,1,.86,1.54,6.27,6.27,0,0,1,.29,2,8.85,8.85,0,0,1-.46,2.74A9.64,9.64,0,0,1,135.11,25a10.47,10.47,0,0,1-2.23,2.25,9.57,9.57,0,0,1-3.06,1.51,5.37,5.37,0,0,0,.62,1.16,4.11,4.11,0,0,0,.93.95,4.4,4.4,0,0,0,1.25.63,5.3,5.3,0,0,0,1.65.23,5.15,5.15,0,0,0,2.41-.53,5.27,5.27,0,0,0,1.7-1.39,7.46,7.46,0,0,0,1.11-1.95,12.34,12.34,0,0,0,.63-2.18,1.45,1.45,0,0,1,.67-1.07,1.37,1.37,0,0,1,1-.13,1.79,1.79,0,0,1,.91.6A1.38,1.38,0,0,1,143.06,26.23Zm-13.83,0a6.64,6.64,0,0,0,1.62-1.08,6.76,6.76,0,0,0,1.24-1.5,7.33,7.33,0,0,0,.8-1.84,7.6,7.6,0,0,0,.28-2.07,2.4,2.4,0,0,0-.27-1.24.83.83,0,0,0-.74-.45,1.54,1.54,0,0,0-1,.4,3.57,3.57,0,0,0-.8,1,7.22,7.22,0,0,0-.56,1.45q-.22.81-.36,1.63a14.79,14.79,0,0,0-.19,1.56,11.43,11.43,0,0,0,0,1.23,3.82,3.82,0,0,0,0,.42A4,4,0,0,1,129.23,26.18Z"/></svg>